{
	"asset":{
		"generator":"Khronos glTF Blender I/O v4.1.63",
		"version":"2.0"
	},
	"scene":0,
	"scenes":[
		{
			"name":"Scene",
			"nodes":[
				11
			]
		}
	],
	"nodes":[
		{
			"mesh":0,
			"name":"Base-button",
			"rotation":[
				-0.5,
				0.5,
				0.5,
				0.5000001192092896
			],
			"scale":[
				2.5645742416381836,
				2.5645742416381836,
				2.5645742416381836
			]
		},
		{
			"mesh":1,
			"name":"cloth",
			"scale":[
				1.7099000215530396,
				2.5399999618530273,
				2.8331820964813232
			],
			"translation":[
				0.1896185576915741,
				0.035191163420677185,
				0.19205471873283386
			]
		},
		{
			"mesh":2,
			"name":"Design-Area_Canopy",
			"rotation":[
				-0.5,
				0.5,
				0.5,
				0.5000001192092896
			],
			"scale":[
				2.5645742416381836,
				2.5645742416381836,
				2.5645742416381836
			]
		},
		{
			"mesh":3,
			"name":"Inside Canopy",
			"rotation":[
				-0.5,
				0.5,
				0.5,
				0.5000001192092896
			],
			"scale":[
				2.5645742416381836,
				2.5645742416381836,
				2.5645742416381836
			]
		},
		{
			"mesh":4,
			"name":"lock",
			"scale":[
				2.5399999618530273,
				2.5399999618530273,
				2.5399999618530273
			],
			"translation":[
				0.18973296880722046,
				-0.09033884853124619,
				0.1858261227607727
			]
		},
		{
			"mesh":5,
			"name":"ring",
			"scale":[
				2.1995155811309814,
				2.1995155811309814,
				2.1995155811309814
			],
			"translation":[
				0.1895752102136612,
				0.031030938029289246,
				0.19241318106651306
			]
		},
		{
			"mesh":6,
			"name":"Rubber",
			"rotation":[
				-0.5,
				0.5,
				0.5,
				0.5000001192092896
			],
			"scale":[
				2.5645742416381836,
				2.5645742416381836,
				2.5645742416381836
			]
		},
		{
			"mesh":7,
			"name":"Screw",
			"rotation":[
				-0.5,
				0.5,
				0.5,
				0.5000001192092896
			],
			"scale":[
				2.5645742416381836,
				2.5645742416381836,
				2.5645742416381836
			]
		},
		{
			"mesh":8,
			"name":"Thread",
			"rotation":[
				-0.5,
				0.5,
				0.5,
				0.5000001192092896
			],
			"scale":[
				2.5645742416381836,
				2.5645742416381836,
				2.5645742416381836
			]
		},
		{
			"mesh":9,
			"name":"White_Rod",
			"rotation":[
				-0.5,
				0.5,
				0.5,
				0.5000001192092896
			],
			"scale":[
				2.5645742416381836,
				2.5645742416381836,
				2.5645742416381836
			]
		},
		{
			"mesh":10,
			"name":"White_strap",
			"rotation":[
				-0.5,
				0.5,
				0.5,
				0.5000001192092896
			],
			"scale":[
				2.5645742416381836,
				2.5645742416381836,
				2.5645742416381836
			]
		},
		{
			"children":[
				0,
				1,
				2,
				3,
				4,
				5,
				6,
				7,
				8,
				9,
				10
			],
			"name":"RootNode",
			"scale":[
				3.262030601501465,
				3.262030601501465,
				3.262030601501465
			],
			"translation":[
				0,
				0.640472948551178,
				0
			]
		}
	],
	"materials":[
		{
			"name":"05 - Default",
			"pbrMetallicRoughness":{
				"baseColorFactor":[
					0.019607843831181526,
					0.019607843831181526,
					0.019607843831181526,
					1
				],
				"metallicFactor":0.4000000059604645,
				"roughnessFactor":0.7071067690849304
			}
		},
		{
			"name":"DefaultMaterial",
			"pbrMetallicRoughness":{
				"baseColorFactor":[
					0.5,
					0.5,
					0.5,
					1
				],
				"metallicFactor":0.20000000298023224,
				"roughnessFactor":0.800000011920929
			}
		},
		{
			"doubleSided":true,
			"name":"Material.003",
			"pbrMetallicRoughness":{
				"baseColorTexture":{
					"index":0
				},
				"metallicFactor":0,
				"roughnessFactor":0.5
			}
		},
		{
			"doubleSided":true,
			"name":"Material.002",
			"pbrMetallicRoughness":{
				"metallicFactor":0
			}
		},
		{
			"doubleSided":true,
			"name":"Material.001",
			"pbrMetallicRoughness":{
				"baseColorFactor":[
					0.5403821468353271,
					0.5403821468353271,
					0.5403821468353271,
					1
				],
				"roughnessFactor":0.5
			}
		}
	],
	"meshes":[
		{
			"name":"Base-button",
			"primitives":[
				{
					"attributes":{
						"POSITION":0,
						"NORMAL":1,
						"TEXCOORD_0":2
					},
					"indices":3,
					"material":0
				}
			]
		},
		{
			"name":"cloth",
			"primitives":[
				{
					"attributes":{
						"POSITION":4,
						"NORMAL":5,
						"TEXCOORD_0":6
					},
					"indices":7,
					"material":1
				}
			]
		},
		{
			"name":"Design-Area_Canopy",
			"primitives":[
				{
					"attributes":{
						"POSITION":8,
						"NORMAL":9,
						"TEXCOORD_0":10
					},
					"indices":11,
					"material":2
				}
			]
		},
		{
			"name":"Inside Canopy",
			"primitives":[
				{
					"attributes":{
						"POSITION":12,
						"NORMAL":13,
						"TEXCOORD_0":14
					},
					"indices":15,
					"material":3
				}
			]
		},
		{
			"name":"lock",
			"primitives":[
				{
					"attributes":{
						"POSITION":16,
						"NORMAL":17,
						"TEXCOORD_0":18
					},
					"indices":19,
					"material":1
				}
			]
		},
		{
			"name":"ring",
			"primitives":[
				{
					"attributes":{
						"POSITION":20,
						"NORMAL":21
					},
					"indices":22,
					"material":1
				}
			]
		},
		{
			"name":"Rubber",
			"primitives":[
				{
					"attributes":{
						"POSITION":23,
						"NORMAL":24
					},
					"indices":25,
					"material":0
				}
			]
		},
		{
			"name":"Screw",
			"primitives":[
				{
					"attributes":{
						"POSITION":26,
						"NORMAL":27
					},
					"indices":28,
					"material":4
				}
			]
		},
		{
			"name":"Thread",
			"primitives":[
				{
					"attributes":{
						"POSITION":29,
						"NORMAL":30
					},
					"indices":31,
					"material":3
				}
			]
		},
		{
			"name":"White_Rod",
			"primitives":[
				{
					"attributes":{
						"POSITION":32,
						"NORMAL":33
					},
					"indices":34,
					"material":4
				}
			]
		},
		{
			"name":"White_strap",
			"primitives":[
				{
					"attributes":{
						"POSITION":35,
						"NORMAL":36,
						"TEXCOORD_0":37
					},
					"indices":38,
					"material":3
				}
			]
		}
	],
	"textures":[
		{
			"sampler":0,
			"source":0
		}
	],
	"images":[
		{
			"bufferView":12,
			"mimeType":"image/png",
			"name":"3D Valance CarePoint Clinic"
		}
	],
	"accessors":[
		{
			"bufferView":0,
			"componentType":5126,
			"count":4282,
			"max":[
				0.07525075972080231,
				0.07560314238071442,
				-0.07486210763454437
			],
			"min":[
				-0.07544152438640594,
				-0.07537482678890228,
				-0.07554753869771957
			],
			"type":"VEC3"
		},
		{
			"bufferView":1,
			"componentType":5126,
			"count":4282,
			"type":"VEC3"
		},
		{
			"bufferView":2,
			"componentType":5126,
			"count":4282,
			"type":"VEC2"
		},
		{
			"bufferView":3,
			"componentType":5123,
			"count":7464,
			"type":"SCALAR"
		},
		{
			"bufferView":4,
			"componentType":5126,
			"count":96,
			"max":[
				0.001656651496887207,
				0.001482179039157927,
				0.0002724975347518921
			],
			"min":[
				-0.2238788604736328,
				-0.0014776046155020595,
				-0.1356022208929062
			],
			"type":"VEC3"
		},
		{
			"bufferView":5,
			"componentType":5126,
			"count":96,
			"type":"VEC3"
		},
		{
			"bufferView":6,
			"componentType":5126,
			"count":96,
			"type":"VEC2"
		},
		{
			"bufferView":7,
			"componentType":5123,
			"count":144,
			"type":"SCALAR"
		},
		{
			"bufferView":8,
			"componentType":5126,
			"count":88,
			"max":[
				0.07526888698339462,
				0.07524558156728745,
				0.0769159123301506
			],
			"min":[
				-0.07526690512895584,
				-0.07529021054506302,
				0.014957613311707973
			],
			"type":"VEC3"
		},
		{
			"bufferView":9,
			"componentType":5126,
			"count":88,
			"type":"VEC3"
		},
		{
			"bufferView":10,
			"componentType":5126,
			"count":88,
			"type":"VEC2"
		},
		{
			"bufferView":11,
			"componentType":5123,
			"count":150,
			"type":"SCALAR"
		},
		{
			"bufferView":13,
			"componentType":5126,
			"count":257,
			"max":[
				0.07526888698339462,
				0.07524558156728745,
				0.0769159123301506
			],
			"min":[
				-0.07526690512895584,
				-0.07529021054506302,
				0.014957613311707973
			],
			"type":"VEC3"
		},
		{
			"bufferView":14,
			"componentType":5126,
			"count":257,
			"type":"VEC3"
		},
		{
			"bufferView":15,
			"componentType":5126,
			"count":257,
			"type":"VEC2"
		},
		{
			"bufferView":16,
			"componentType":5123,
			"count":522,
			"type":"SCALAR"
		},
		{
			"bufferView":17,
			"componentType":5126,
			"count":852,
			"max":[
				0.00069466233253479,
				0.0006874772952869534,
				0.00223425030708313
			],
			"min":[
				-0.1500953584909439,
				-0.0018160255858674645,
				-0.14843612909317017
			],
			"type":"VEC3"
		},
		{
			"bufferView":18,
			"componentType":5126,
			"count":852,
			"type":"VEC3"
		},
		{
			"bufferView":19,
			"componentType":5126,
			"count":852,
			"type":"VEC2"
		},
		{
			"bufferView":20,
			"componentType":5123,
			"count":4272,
			"type":"SCALAR"
		},
		{
			"bufferView":21,
			"componentType":5126,
			"count":560,
			"max":[
				0.001292109489440918,
				0.0006338037783280015,
				0.0001458674669265747
			],
			"min":[
				-0.17398522794246674,
				-0.00129196816124022,
				-0.17478911578655243
			],
			"type":"VEC3"
		},
		{
			"bufferView":22,
			"componentType":5126,
			"count":560,
			"type":"VEC3"
		},
		{
			"bufferView":23,
			"componentType":5123,
			"count":3360,
			"type":"SCALAR"
		},
		{
			"bufferView":24,
			"componentType":5126,
			"count":2735,
			"max":[
				0.0747046023607254,
				0.07505090534687042,
				0.07610525190830231
			],
			"min":[
				-0.07492175698280334,
				-0.07484994828701019,
				-0.03653769567608833
			],
			"type":"VEC3"
		},
		{
			"bufferView":25,
			"componentType":5126,
			"count":2735,
			"type":"VEC3"
		},
		{
			"bufferView":26,
			"componentType":5123,
			"count":5028,
			"type":"SCALAR"
		},
		{
			"bufferView":27,
			"componentType":5126,
			"count":3510,
			"max":[
				0.07482617348432541,
				0.07517211884260178,
				0.03235255554318428
			],
			"min":[
				-0.07504301518201828,
				-0.07499036937952042,
				0.016899101436138153
			],
			"type":"VEC3"
		},
		{
			"bufferView":28,
			"componentType":5126,
			"count":3510,
			"type":"VEC3"
		},
		{
			"bufferView":29,
			"componentType":5123,
			"count":20124,
			"type":"SCALAR"
		},
		{
			"bufferView":30,
			"componentType":5126,
			"count":204,
			"max":[
				0.07528095692396164,
				0.07525765150785446,
				0.015916209667921066
			],
			"min":[
				-0.07528091222047806,
				-0.07530421763658524,
				0.01522694993764162
			],
			"type":"VEC3"
		},
		{
			"bufferView":31,
			"componentType":5126,
			"count":204,
			"type":"VEC3"
		},
		{
			"bufferView":32,
			"componentType":5123,
			"count":288,
			"type":"SCALAR"
		},
		{
			"bufferView":33,
			"componentType":5126,
			"count":759,
			"max":[
				0.07460828870534897,
				0.07495573163032532,
				0.07545134425163269
			],
			"min":[
				-0.0748242661356926,
				-0.07475244998931885,
				-0.07506531476974487
			],
			"type":"VEC3"
		},
		{
			"bufferView":34,
			"componentType":5126,
			"count":759,
			"type":"VEC3"
		},
		{
			"bufferView":35,
			"componentType":5123,
			"count":1137,
			"type":"SCALAR"
		},
		{
			"bufferView":36,
			"componentType":5126,
			"count":391,
			"max":[
				0.0755758211016655,
				0.07558192312717438,
				0.07714829593896866
			],
			"min":[
				-0.07557233422994614,
				-0.07560314238071442,
				0.014784345403313637
			],
			"type":"VEC3"
		},
		{
			"bufferView":37,
			"componentType":5126,
			"count":391,
			"type":"VEC3"
		},
		{
			"bufferView":38,
			"componentType":5126,
			"count":391,
			"type":"VEC2"
		},
		{
			"bufferView":39,
			"componentType":5123,
			"count":1542,
			"type":"SCALAR"
		}
	],
	"bufferViews":[
		{
			"buffer":0,
			"byteLength":51384,
			"byteOffset":0,
			"target":34962
		},
		{
			"buffer":0,
			"byteLength":51384,
			"byteOffset":51384,
			"target":34962
		},
		{
			"buffer":0,
			"byteLength":34256,
			"byteOffset":102768,
			"target":34962
		},
		{
			"buffer":0,
			"byteLength":14928,
			"byteOffset":137024,
			"target":34963
		},
		{
			"buffer":0,
			"byteLength":1152,
			"byteOffset":151952,
			"target":34962
		},
		{
			"buffer":0,
			"byteLength":1152,
			"byteOffset":153104,
			"target":34962
		},
		{
			"buffer":0,
			"byteLength":768,
			"byteOffset":154256,
			"target":34962
		},
		{
			"buffer":0,
			"byteLength":288,
			"byteOffset":155024,
			"target":34963
		},
		{
			"buffer":0,
			"byteLength":1056,
			"byteOffset":155312,
			"target":34962
		},
		{
			"buffer":0,
			"byteLength":1056,
			"byteOffset":156368,
			"target":34962
		},
		{
			"buffer":0,
			"byteLength":704,
			"byteOffset":157424,
			"target":34962
		},
		{
			"buffer":0,
			"byteLength":300,
			"byteOffset":158128,
			"target":34963
		},
		{
			"buffer":0,
			"byteLength":255572,
			"byteOffset":158428
		},
		{
			"buffer":0,
			"byteLength":3084,
			"byteOffset":414000,
			"target":34962
		},
		{
			"buffer":0,
			"byteLength":3084,
			"byteOffset":417084,
			"target":34962
		},
		{
			"buffer":0,
			"byteLength":2056,
			"byteOffset":420168,
			"target":34962
		},
		{
			"buffer":0,
			"byteLength":1044,
			"byteOffset":422224,
			"target":34963
		},
		{
			"buffer":0,
			"byteLength":10224,
			"byteOffset":423268,
			"target":34962
		},
		{
			"buffer":0,
			"byteLength":10224,
			"byteOffset":433492,
			"target":34962
		},
		{
			"buffer":0,
			"byteLength":6816,
			"byteOffset":443716,
			"target":34962
		},
		{
			"buffer":0,
			"byteLength":8544,
			"byteOffset":450532,
			"target":34963
		},
		{
			"buffer":0,
			"byteLength":6720,
			"byteOffset":459076,
			"target":34962
		},
		{
			"buffer":0,
			"byteLength":6720,
			"byteOffset":465796,
			"target":34962
		},
		{
			"buffer":0,
			"byteLength":6720,
			"byteOffset":472516,
			"target":34963
		},
		{
			"buffer":0,
			"byteLength":32820,
			"byteOffset":479236,
			"target":34962
		},
		{
			"buffer":0,
			"byteLength":32820,
			"byteOffset":512056,
			"target":34962
		},
		{
			"buffer":0,
			"byteLength":10056,
			"byteOffset":544876,
			"target":34963
		},
		{
			"buffer":0,
			"byteLength":42120,
			"byteOffset":554932,
			"target":34962
		},
		{
			"buffer":0,
			"byteLength":42120,
			"byteOffset":597052,
			"target":34962
		},
		{
			"buffer":0,
			"byteLength":40248,
			"byteOffset":639172,
			"target":34963
		},
		{
			"buffer":0,
			"byteLength":2448,
			"byteOffset":679420,
			"target":34962
		},
		{
			"buffer":0,
			"byteLength":2448,
			"byteOffset":681868,
			"target":34962
		},
		{
			"buffer":0,
			"byteLength":576,
			"byteOffset":684316,
			"target":34963
		},
		{
			"buffer":0,
			"byteLength":9108,
			"byteOffset":684892,
			"target":34962
		},
		{
			"buffer":0,
			"byteLength":9108,
			"byteOffset":694000,
			"target":34962
		},
		{
			"buffer":0,
			"byteLength":2274,
			"byteOffset":703108,
			"target":34963
		},
		{
			"buffer":0,
			"byteLength":4692,
			"byteOffset":705384,
			"target":34962
		},
		{
			"buffer":0,
			"byteLength":4692,
			"byteOffset":710076,
			"target":34962
		},
		{
			"buffer":0,
			"byteLength":3128,
			"byteOffset":714768,
			"target":34962
		},
		{
			"buffer":0,
			"byteLength":3084,
			"byteOffset":717896,
			"target":34963
		}
	],
	"samplers":[
		{
			"magFilter":9729,
			"minFilter":9987
		}
	],
	"buffers":[
		{
			"byteLength":720980,
			"uri":"data:application/octet-stream;base64,"
		}
	]
}
